<!DOCTYPE svg PUBLIC "-//W3C//DTD SVG 1.1//EN" "http://www.w3.org/Graphics/SVG/1.1/DTD/svg11.dtd">
<svg xmlns="http://www.w3.org/2000/svg" xmlns:xlink="http://www.w3.org/1999/xlink" width="969px" height="546px" version="1.1"><defs/><g transform="translate(0.5,0.5)"><rect x="132" y="207" width="120" height="75" rx="11.25" ry="11.25" fill="#ffffff" stroke="#f44d3c" stroke-width="2" pointer-events="none"/><ellipse cx="942" cy="184" rx="25" ry="25" fill="#ffffff" stroke="#f44d3c" stroke-width="6" pointer-events="none"/><path d="M 852 184 L 874.5 184 Q 884.5 184 894.5 184 L 908.76 184" fill="none" stroke="#f44d3c" stroke-width="2" stroke-miterlimit="10" pointer-events="none"/><path d="M 914.76 184 L 906.76 188 L 908.76 184 L 906.76 180 Z" fill="#f44d3c" stroke="#f44d3c" stroke-width="2" stroke-miterlimit="10" pointer-events="none"/><ellipse cx="27" cy="245" rx="25" ry="25" fill="#ffffff" stroke="#f44d3c" stroke-width="2" pointer-events="none"/><ellipse cx="942" cy="507" rx="25" ry="25" fill="#ffffff" stroke="#f44d3c" stroke-width="6" pointer-events="none"/><path d="M 419 413 L 519 413 Q 529 413 529 403 L 529 194 Q 529 184 539 184 L 553.76 184" fill="none" stroke="#f44d3c" stroke-width="2" stroke-miterlimit="10" pointer-events="none"/><path d="M 559.76 184 L 551.76 188 L 553.76 184 L 551.76 180 Z" fill="#f44d3c" stroke="#f44d3c" stroke-width="2" stroke-miterlimit="10" pointer-events="none"/><path d="M 422 413 L 482 413 Q 492 413 492 403 L 492 47 Q 492 37 502 37 L 553.76 37" fill="none" stroke="#f44d3c" stroke-width="2" stroke-miterlimit="10" pointer-events="none"/><path d="M 559.76 37 L 551.76 41 L 553.76 37 L 551.76 33 Z" fill="#f44d3c" stroke="#f44d3c" stroke-width="2" stroke-miterlimit="10" pointer-events="none"/><ellipse cx="620" cy="307" rx="25" ry="25" fill="#ffffff" stroke="#f44d3c" pointer-events="none"/><rect x="602.5" y="297" width="35" height="20" fill="#ffffff" stroke="#f44d3c" pointer-events="none"/><path d="M 602.5 297 L 620 307 L 637.5 297" fill="none" stroke="#f44d3c" stroke-miterlimit="10" pointer-events="none"/><path d="M 362 215 L 392 245 L 362 275 L 332 245 Z" fill="#ffffff" stroke="#f44d3c" stroke-width="2" stroke-miterlimit="10" pointer-events="none"/><path d="M 252 244 L 282 244 Q 292 244 302 244 L 323.76 244" fill="none" stroke="#f44d3c" stroke-width="2" stroke-miterlimit="10" pointer-events="none"/><path d="M 329.76 244 L 321.76 248 L 323.76 244 L 321.76 240 Z" fill="#f44d3c" stroke="#f44d3c" stroke-width="2" stroke-miterlimit="10" pointer-events="none"/><rect x="302" y="375" width="120" height="75" rx="11.25" ry="11.25" fill="#ffffff" stroke="#f44d3c" stroke-width="2" pointer-events="none"/><path d="M 362 275 L 362 315 Q 362 325 362 335 L 362 366.76" fill="none" stroke="#f44d3c" stroke-width="2" stroke-miterlimit="10" pointer-events="none"/><path d="M 362 372.76 L 358 364.76 L 362 366.76 L 366 364.76 Z" fill="#f44d3c" stroke="#f44d3c" stroke-width="2" stroke-miterlimit="10" pointer-events="none"/><rect x="562" y="2" width="130" height="70" rx="4.7" ry="4.7" fill="#ffffff" stroke="#f44d3c" stroke-width="2" pointer-events="none"/><path d="M 580.57 2 L 580.57 72" fill="none" stroke="#f44d3c" stroke-width="2" stroke-miterlimit="10" pointer-events="none"/><path d="M 673.43 2 L 673.43 72" fill="none" stroke="#f44d3c" stroke-width="2" stroke-miterlimit="10" pointer-events="none"/><path d="M 573.92 148 L 676.39 148 C 677 148.68 677 149.72 676.39 150.4 C 671.79 155.75 668.75 169.1 668.75 184 C 668.75 198.9 671.79 212.25 676.39 217.6 C 677 218.28 677 219.32 676.39 220 L 573.92 220 C 567.33 220 562 203.88 562 184 C 562 164.12 567.33 148 573.92 148 Z" fill="#ffffff" stroke="#f44d3c" stroke-width="2" stroke-miterlimit="10" pointer-events="none"/><rect x="732" y="146" width="120" height="75" rx="11.25" ry="11.25" fill="#ffffff" stroke="#f44d3c" stroke-width="2" pointer-events="none"/><path d="M 669 184 L 690.5 184 Q 700.5 184 710.5 184 L 723.76 184" fill="none" stroke="#f44d3c" stroke-width="2" stroke-miterlimit="10" pointer-events="none"/><path d="M 729.76 184 L 721.76 188 L 723.76 184 L 721.76 180 Z" fill="#f44d3c" stroke="#f44d3c" stroke-width="2" stroke-miterlimit="10" pointer-events="none"/><path d="M 620 383 L 650 413 L 620 443 L 590 413 Z" fill="#ffffff" stroke="#f44d3c" stroke-width="2" stroke-miterlimit="10" pointer-events="none"/><path d="M 422 413 L 496 413 Q 506 413 516 413 L 581.76 413" fill="none" stroke="#f44d3c" stroke-width="2" stroke-miterlimit="10" pointer-events="none"/><path d="M 587.76 413 L 579.76 417 L 581.76 413 L 579.76 409 Z" fill="#f44d3c" stroke="#f44d3c" stroke-width="2" stroke-miterlimit="10" pointer-events="none"/><path d="M 620 383 L 620 367.5 Q 620 357.5 620 348.87 L 620 340.24" fill="none" stroke="#f44d3c" stroke-width="2" stroke-miterlimit="10" pointer-events="none"/><path d="M 620 334.24 L 624 342.24 L 620 340.24 L 616 342.24 Z" fill="#f44d3c" stroke="#f44d3c" stroke-width="2" stroke-miterlimit="10" pointer-events="none"/><rect x="732" y="469" width="120" height="75" rx="11.25" ry="11.25" fill="#ffffff" stroke="#f44d3c" stroke-width="2" pointer-events="none"/><path d="M 620 443 L 620 497 Q 620 507 630 507 L 723.76 507" fill="none" stroke="#f44d3c" stroke-width="2" stroke-miterlimit="10" pointer-events="none"/><path d="M 729.76 507 L 721.76 511 L 723.76 507 L 721.76 503 Z" fill="#f44d3c" stroke="#f44d3c" stroke-width="2" stroke-miterlimit="10" pointer-events="none"/><path d="M 852 507 L 874.5 507 Q 884.5 507 894.5 507 L 908.76 507" fill="none" stroke="#f44d3c" stroke-width="2" stroke-miterlimit="10" pointer-events="none"/><path d="M 914.76 507 L 906.76 511 L 908.76 507 L 906.76 503 Z" fill="#f44d3c" stroke="#f44d3c" stroke-width="2" stroke-miterlimit="10" pointer-events="none"/><path d="M 52 245 L 82 245 Q 92 245 102 245 L 123.76 245" fill="none" stroke="#f44d3c" stroke-width="2" stroke-miterlimit="10" pointer-events="none"/><path d="M 129.76 245 L 121.76 249 L 123.76 245 L 121.76 241 Z" fill="#f44d3c" stroke="#f44d3c" stroke-width="2" stroke-miterlimit="10" pointer-events="none"/><ellipse cx="362" cy="123" rx="25" ry="25" fill="#ffffff" stroke="#f44d3c" pointer-events="none"/><rect x="344.5" y="113" width="35" height="20" fill="#ffffff" stroke="#f44d3c" pointer-events="none"/><path d="M 344.5 113 L 362 123 L 379.5 113" fill="none" stroke="#f44d3c" stroke-miterlimit="10" pointer-events="none"/><path d="M 362 215 L 362 191.5 Q 362 181.5 362 171.5 L 362 156.24" fill="none" stroke="#f44d3c" stroke-width="2" stroke-miterlimit="10" pointer-events="none"/><path d="M 362 150.24 L 366 158.24 L 362 156.24 L 358 158.24 Z" fill="#f44d3c" stroke="#f44d3c" stroke-width="2" stroke-miterlimit="10" pointer-events="none"/></g></svg>